<svg width="21" height="27" viewBox="0 0 21 27" fill="none" xmlns="http://www.w3.org/2000/svg">
<g id="1" clip-path="url(#clip0_20_38)">
<path id="Vector" fill-rule="evenodd" clip-rule="evenodd" d="M10.5 2.625C6.15076 2.625 2.625 6.15075 2.625 10.5C2.625 11.4233 3.06193 12.6762 3.89173 14.1501C4.70173 15.5887 5.79894 17.0877 6.92261 18.4629C8.04224 19.8332 9.16538 21.053 10.0104 21.9316C10.1869 22.1151 10.351 22.2835 10.5 22.4348C10.649 22.2835 10.8131 22.1151 10.9896 21.9316C11.8346 21.053 12.9578 19.8332 14.0774 18.4629C15.2011 17.0877 16.2982 15.5887 17.1083 14.1501C17.9381 12.6762 18.375 11.4233 18.375 10.5C18.375 6.15075 14.8492 2.625 10.5 2.625ZM10.5 24.2812C9.59716 25.2339 9.59699 25.2337 9.59679 25.2336L9.58831 25.2255L9.56637 25.2046L9.48487 25.1261C9.41439 25.0581 9.31232 24.9588 9.18316 24.8313C8.92492 24.5763 8.55797 24.2083 8.11847 23.7513C7.24087 22.8388 6.06714 21.5646 4.88989 20.1239C3.71669 18.688 2.51702 17.059 1.60436 15.4379C0.711502 13.852 0 12.1138 0 10.5C0 4.70101 4.70101 0 10.5 0C16.299 0 21 4.70101 21 10.5C21 12.1138 20.2885 13.852 19.3956 15.4379C18.483 17.059 17.2833 18.688 16.1101 20.1239C14.9328 21.5646 13.7592 22.8388 12.8815 23.7513C12.442 24.2083 12.0751 24.5763 11.8168 24.8313C11.6877 24.9588 11.5856 25.0581 11.5151 25.1261L11.4336 25.2046L11.4117 25.2255L11.4038 25.2329C11.4036 25.2332 11.4028 25.2339 10.5 24.2812ZM10.5 24.2812L11.4028 25.2339L10.5 26.0895L9.59679 25.2336L10.5 24.2812Z" fill="#FF7070"/>
<path id="Vector_2" fill-rule="evenodd" clip-rule="evenodd" d="M10.5 13.125C11.9497 13.125 13.125 11.9497 13.125 10.5C13.125 9.05025 11.9497 7.875 10.5 7.875C9.05025 7.875 7.875 9.05025 7.875 10.5C7.875 11.9497 9.05025 13.125 10.5 13.125ZM10.5 15.75C13.3994 15.75 15.75 13.3994 15.75 10.5C15.75 7.6005 13.3994 5.25 10.5 5.25C7.6005 5.25 5.25 7.6005 5.25 10.5C5.25 13.3994 7.6005 15.75 10.5 15.75Z" fill="#FF6060"/>
</g>
<defs>
<clipPath id="clip0_20_38">
<rect width="21" height="26.25" fill="white"/>
</clipPath>
</defs>
</svg>
