<svg width="30" height="38" viewBox="0 0 30 38" fill="none" xmlns="http://www.w3.org/2000/svg">
<g id="2" clip-path="url(#clip0_20_35)">
<path id="Vector" fill-rule="evenodd" clip-rule="evenodd" d="M15 3.75C8.78679 3.75 3.75 8.78679 3.75 15C3.75 16.319 4.37419 18.1089 5.55962 20.2144C6.71676 22.2696 8.2842 24.411 9.88944 26.3756C11.4889 28.3331 13.0934 30.0757 14.3006 31.3309C14.5528 31.593 14.7871 31.8336 15 32.0497C15.2129 31.8336 15.4472 31.593 15.6994 31.3309C16.9066 30.0757 18.5111 28.3331 20.1105 26.3756C21.7159 24.411 23.2832 22.2696 24.4404 20.2144C25.6258 18.1089 26.25 16.319 26.25 15C26.25 8.78679 21.2132 3.75 15 3.75ZM15 34.6875C13.7102 36.0484 13.71 36.0482 13.7097 36.048L13.6976 36.0364L13.6662 36.0066L13.5498 35.8944C13.4491 35.7973 13.3033 35.6554 13.1188 35.4733C12.7499 35.109 12.2257 34.5832 11.5978 33.9304C10.3441 32.6269 8.66734 30.8066 6.98556 28.7484C5.30955 26.6972 3.59574 24.3699 2.29194 22.0541C1.01643 19.7886 0 17.3054 0 15C0 6.71572 6.71572 0 15 0C23.2843 0 30 6.71572 30 15C30 17.3054 28.9836 19.7886 27.708 22.0541C26.4043 24.3699 24.6904 26.6972 23.0145 28.7484C21.3326 30.8066 19.656 32.6269 18.4022 33.9304C17.7743 34.5832 17.2501 35.109 16.8812 35.4733C16.6967 35.6554 16.5509 35.7973 16.4502 35.8944L16.3338 36.0066L16.3024 36.0364L16.2911 36.0471C16.2908 36.0474 16.2898 36.0484 15 34.6875ZM15 34.6875L16.2898 36.0484L15 37.2707L13.7097 36.048L15 34.6875Z" fill="#FF7070"/>
<path id="Vector_2" fill-rule="evenodd" clip-rule="evenodd" d="M15 18.75C17.0711 18.75 18.75 17.0711 18.75 15C18.75 12.9289 17.0711 11.25 15 11.25C12.9289 11.25 11.25 12.9289 11.25 15C11.25 17.0711 12.9289 18.75 15 18.75ZM15 22.5C19.1421 22.5 22.5 19.1421 22.5 15C22.5 10.8579 19.1421 7.5 15 7.5C10.8579 7.5 7.5 10.8579 7.5 15C7.5 19.1421 10.8579 22.5 15 22.5Z" fill="#FF6060"/>
</g>
<defs>
<clipPath id="clip0_20_35">
<rect width="30" height="37.5" fill="white"/>
</clipPath>
</defs>
</svg>
