<svg width="50" height="63" viewBox="0 0 50 63" fill="none" xmlns="http://www.w3.org/2000/svg">
<g id="3" clip-path="url(#clip0_14_40)">
<path id="Vector" fill-rule="evenodd" clip-rule="evenodd" d="M25 6.25C14.6447 6.25 6.25 14.6447 6.25 25C6.25 27.1983 7.29031 30.1814 9.26603 33.6906C11.1946 37.1159 13.807 40.685 16.4824 43.9594C19.1482 47.2219 21.8223 50.1263 23.8344 52.2181C24.2546 52.655 24.6452 53.0559 25 53.4162C25.3548 53.0559 25.7454 52.655 26.1656 52.2181C28.1777 50.1263 30.8518 47.2219 33.5175 43.9594C36.1931 40.685 38.8053 37.1159 40.7341 33.6906C42.7097 30.1814 43.75 27.1983 43.75 25C43.75 14.6447 35.3553 6.25 25 6.25ZM25 57.8125C22.8504 60.0806 22.85 60.0803 22.8495 60.08L22.8293 60.0606L22.7771 60.0109L22.583 59.8241C22.4152 59.6622 22.1722 59.4256 21.8647 59.1222C21.2498 58.515 20.3761 57.6387 19.3297 56.5506C17.2402 54.3781 14.4456 51.3444 11.6426 47.9141C8.84925 44.4953 5.99291 40.6166 3.81991 36.7569C1.69405 32.9809 0 28.8423 0 25C0 11.1929 11.1929 0 25 0C38.8072 0 50 11.1929 50 25C50 28.8423 48.3059 32.9809 46.18 36.7569C44.0072 40.6166 41.1506 44.4953 38.3575 47.9141C35.5544 51.3444 32.76 54.3781 30.6703 56.5506C29.6239 57.6387 28.7502 58.515 28.1353 59.1222C27.8278 59.4256 27.5848 59.6622 27.417 59.8241L27.2229 60.0109L27.1707 60.0606L27.1519 60.0784C27.1514 60.0791 27.1496 60.0806 25 57.8125ZM25 57.8125L27.1496 60.0806L25 62.1178L22.8495 60.08L25 57.8125Z" fill="#FF7070"/>
<path id="Vector_2" fill-rule="evenodd" clip-rule="evenodd" d="M25 31.25C28.4518 31.25 31.25 28.4518 31.25 25C31.25 21.5482 28.4518 18.75 25 18.75C21.5482 18.75 18.75 21.5482 18.75 25C18.75 28.4518 21.5482 31.25 25 31.25ZM25 37.5C31.9034 37.5 37.5 31.9034 37.5 25C37.5 18.0964 31.9034 12.5 25 12.5C18.0964 12.5 12.5 18.0964 12.5 25C12.5 31.9034 18.0964 37.5 25 37.5Z" fill="#FF6060"/>
</g>
<defs>
<clipPath id="clip0_14_40">
<rect width="50" height="62.5" fill="white"/>
</clipPath>
</defs>
</svg>
