<svg width="29" height="29" viewBox="0 0 29 29" fill="none" xmlns="http://www.w3.org/2000/svg">
<g id="Globe">
<g id="Vector">
<path fill-rule="evenodd" clip-rule="evenodd" d="M14.5 3.25C8.2868 3.25 3.25 8.2868 3.25 14.5C3.25 20.7132 8.2868 25.75 14.5 25.75C20.7132 25.75 25.75 20.7132 25.75 14.5C25.75 8.2868 20.7132 3.25 14.5 3.25ZM0.75 14.5C0.75 6.90608 6.90608 0.75 14.5 0.75C22.0939 0.75 28.25 6.90608 28.25 14.5C28.25 22.0939 22.0939 28.25 14.5 28.25C6.90608 28.25 0.75 22.0939 0.75 14.5Z" fill="#C1A14E"/>
<path fill-rule="evenodd" clip-rule="evenodd" d="M12.1251 6.1254C11.2927 8.20621 10.75 11.1665 10.75 14.5C10.75 17.8335 11.2927 20.7938 12.1251 22.8746C12.5426 23.9185 13.0085 24.6793 13.462 25.1588C13.9129 25.6356 14.2641 25.75 14.5 25.75C14.7359 25.75 15.0871 25.6356 15.538 25.1588C15.9915 24.6793 16.4574 23.9185 16.8749 22.8746C17.7073 20.7938 18.25 17.8335 18.25 14.5C18.25 11.1665 17.7073 8.20621 16.8749 6.1254C16.4574 5.08153 15.9915 4.32066 15.538 3.8412C15.0871 3.36437 14.7359 3.25 14.5 3.25C14.2641 3.25 13.9129 3.36437 13.462 3.8412C13.0085 4.32066 12.5426 5.08153 12.1251 6.1254ZM11.6456 2.12343C12.391 1.33518 13.3552 0.75 14.5 0.75C15.6448 0.75 16.609 1.33518 17.3544 2.12343C18.0974 2.90903 18.7089 3.97874 19.1961 5.19693C20.1735 7.64023 20.75 10.9299 20.75 14.5C20.75 18.0701 20.1735 21.3598 19.1961 23.8031C18.7089 25.0213 18.0974 26.091 17.3544 26.8766C16.609 27.6648 15.6448 28.25 14.5 28.25C13.3552 28.25 12.391 27.6648 11.6456 26.8766C10.9026 26.091 10.2911 25.0213 9.80387 23.8031C8.82655 21.3598 8.25 18.0701 8.25 14.5C8.25 10.9299 8.82655 7.64023 9.80387 5.19693C10.2911 3.97874 10.9026 2.90903 11.6456 2.12343Z" fill="#C1A14E"/>
<path fill-rule="evenodd" clip-rule="evenodd" d="M25.75 12L3.25 12L3.25 9.5L25.75 9.5V12Z" fill="#C1A14E"/>
<path fill-rule="evenodd" clip-rule="evenodd" d="M25.75 19.5L3.25 19.5L3.25 17L25.75 17V19.5Z" fill="#C1A14E"/>
</g>
</g>
</svg>
