<svg width="206" height="206" viewBox="0 0 206 206" fill="none" xmlns="http://www.w3.org/2000/svg">
<g opacity="0.6">
<g filter="url(#filter0_d_27_511)">
<rect x="18" y="9" width="170" height="170" rx="10" fill="#FFEFAA"/>
</g>
</g>
<path d="M18.5 112.5C105 19 129.185 87.3628 171.5 9.49999C177 9.50001 182.5 8.5 186 14L187.5 18C179.5 103 113 45.5 37 178.5H27.5C24.3206 178.304 22 176.5 21 175.5C20 174.5 18.6983 172.968 18.5 169.5V112.5Z" fill="#E2E2E2"/>
<circle cx="144" cy="156" r="15" stroke="#D4AAFF" stroke-opacity="0.5" stroke-width="5"/>
<circle cx="46" cy="61" r="7.5" stroke="#B0F8C4" stroke-opacity="0.5" stroke-width="3"/>
<circle cx="110.5" cy="39.5" r="5" stroke="#ADE2FF" stroke-opacity="0.5" stroke-width="3"/>
<g clip-path="url(#clip0_27_511)">
<path fill-rule="evenodd" clip-rule="evenodd" d="M144 100.25C133.645 100.25 125.25 108.645 125.25 119C125.25 121.198 126.29 124.181 128.266 127.691C130.195 131.116 132.807 134.685 135.482 137.959C138.148 141.222 140.822 144.126 142.834 146.218C143.255 146.655 143.645 147.056 144 147.416C144.355 147.056 144.745 146.655 145.166 146.218C147.178 144.126 149.852 141.222 152.518 137.959C155.193 134.685 157.805 131.116 159.734 127.691C161.71 124.181 162.75 121.198 162.75 119C162.75 108.645 154.355 100.25 144 100.25ZM144 151.812C141.85 154.081 141.85 154.08 141.85 154.08L141.829 154.061L141.777 154.011L141.583 153.824C141.415 153.662 141.172 153.426 140.865 153.122C140.25 152.515 139.376 151.639 138.33 150.551C136.24 148.378 133.446 145.344 130.643 141.914C127.849 138.495 124.993 134.617 122.82 130.757C120.694 126.981 119 122.842 119 119C119 105.193 130.193 94 144 94C157.807 94 169 105.193 169 119C169 122.842 167.306 126.981 165.18 130.757C163.007 134.617 160.151 138.495 157.357 141.914C154.554 145.344 151.76 148.378 149.67 150.551C148.624 151.639 147.75 152.515 147.135 153.122C146.828 153.426 146.585 153.662 146.417 153.824L146.223 154.011L146.171 154.061L146.152 154.078C146.151 154.079 146.15 154.081 144 151.812ZM144 151.812L146.15 154.081L144 156.118L141.85 154.08L144 151.812Z" fill="#FF7070"/>
<path fill-rule="evenodd" clip-rule="evenodd" d="M144 125.25C147.452 125.25 150.25 122.452 150.25 119C150.25 115.548 147.452 112.75 144 112.75C140.548 112.75 137.75 115.548 137.75 119C137.75 122.452 140.548 125.25 144 125.25ZM144 131.5C150.903 131.5 156.5 125.903 156.5 119C156.5 112.096 150.903 106.5 144 106.5C137.096 106.5 131.5 112.096 131.5 119C131.5 125.903 137.096 131.5 144 131.5Z" fill="#FF6060"/>
</g>
<g clip-path="url(#clip1_27_511)">
<path fill-rule="evenodd" clip-rule="evenodd" d="M46 27.75C39.7868 27.75 34.75 32.7868 34.75 39C34.75 40.319 35.3742 42.1089 36.5596 44.2144C37.7168 46.2696 39.2842 48.411 40.8894 50.3756C42.4889 52.3331 44.0934 54.0757 45.3006 55.3309C45.5528 55.593 45.7871 55.8336 46 56.0497C46.2129 55.8336 46.4472 55.593 46.6994 55.3309C47.9066 54.0757 49.5111 52.3331 51.1105 50.3756C52.7159 48.411 54.2832 46.2696 55.4404 44.2144C56.6258 42.1089 57.25 40.319 57.25 39C57.25 32.7868 52.2132 27.75 46 27.75ZM46 58.6875C44.7102 60.0484 44.71 60.0482 44.7097 60.048L44.6976 60.0364L44.6662 60.0066L44.5498 59.8944C44.4491 59.7973 44.3033 59.6554 44.1188 59.4733C43.7499 59.109 43.2257 58.5832 42.5978 57.9304C41.3441 56.6269 39.6673 54.8066 37.9856 52.7484C36.3096 50.6972 34.5957 48.3699 33.2919 46.0541C32.0164 43.7886 31 41.3054 31 39C31 30.7157 37.7157 24 46 24C54.2843 24 61 30.7157 61 39C61 41.3054 59.9836 43.7886 58.708 46.0541C57.4043 48.3699 55.6904 50.6972 54.0145 52.7484C52.3326 54.8066 50.656 56.6269 49.4022 57.9304C48.7743 58.5832 48.2501 59.109 47.8812 59.4733C47.6967 59.6554 47.5509 59.7973 47.4502 59.8944L47.3338 60.0066L47.3024 60.0364L47.2911 60.0471C47.2908 60.0474 47.2898 60.0484 46 58.6875ZM46 58.6875L47.2898 60.0484L46 61.2707L44.7097 60.048L46 58.6875Z" fill="#FF7070"/>
<path fill-rule="evenodd" clip-rule="evenodd" d="M46 42.75C48.0711 42.75 49.75 41.0711 49.75 39C49.75 36.9289 48.0711 35.25 46 35.25C43.9289 35.25 42.25 36.9289 42.25 39C42.25 41.0711 43.9289 42.75 46 42.75ZM46 46.5C50.1421 46.5 53.5 43.1421 53.5 39C53.5 34.8579 50.1421 31.5 46 31.5C41.8579 31.5 38.5 34.8579 38.5 39C38.5 43.1421 41.8579 46.5 46 46.5Z" fill="#FF6060"/>
</g>
<g clip-path="url(#clip2_27_511)">
<path fill-rule="evenodd" clip-rule="evenodd" d="M110.5 15.625C106.151 15.625 102.625 19.1508 102.625 23.5C102.625 24.4233 103.062 25.6762 103.892 27.1501C104.702 28.5887 105.799 30.0877 106.923 31.4629C108.042 32.8332 109.165 34.053 110.01 34.9316C110.187 35.1151 110.351 35.2835 110.5 35.4348C110.649 35.2835 110.813 35.1151 110.99 34.9316C111.835 34.053 112.958 32.8332 114.077 31.4629C115.201 30.0877 116.298 28.5887 117.108 27.1501C117.938 25.6762 118.375 24.4233 118.375 23.5C118.375 19.1508 114.849 15.625 110.5 15.625ZM110.5 37.2812C109.597 38.2339 109.597 38.2337 109.597 38.2336L109.588 38.2255L109.566 38.2046L109.485 38.1261C109.414 38.0581 109.312 37.9588 109.183 37.8313C108.925 37.5763 108.558 37.2083 108.118 36.7513C107.241 35.8388 106.067 34.5646 104.89 33.1239C103.717 31.688 102.517 30.059 101.604 28.4379C100.712 26.852 100 25.1138 100 23.5C100 17.701 104.701 13 110.5 13C116.299 13 121 17.701 121 23.5C121 25.1138 120.288 26.852 119.396 28.4379C118.483 30.059 117.283 31.688 116.11 33.1239C114.933 34.5646 113.759 35.8388 112.882 36.7513C112.442 37.2083 112.075 37.5763 111.817 37.8313C111.688 37.9588 111.586 38.0581 111.515 38.1261L111.434 38.2046L111.412 38.2255L111.404 38.2329C111.404 38.2332 111.403 38.2339 110.5 37.2812ZM110.5 37.2812L111.403 38.2339L110.5 39.0895L109.597 38.2336L110.5 37.2812Z" fill="#FF7070"/>
<path fill-rule="evenodd" clip-rule="evenodd" d="M110.5 26.125C111.95 26.125 113.125 24.9497 113.125 23.5C113.125 22.0503 111.95 20.875 110.5 20.875C109.05 20.875 107.875 22.0503 107.875 23.5C107.875 24.9497 109.05 26.125 110.5 26.125ZM110.5 28.75C113.399 28.75 115.75 26.3994 115.75 23.5C115.75 20.6005 113.399 18.25 110.5 18.25C107.601 18.25 105.25 20.6005 105.25 23.5C105.25 26.3994 107.601 28.75 110.5 28.75Z" fill="#FF6060"/>
</g>
<defs>
<filter id="filter0_d_27_511" x="0" y="0" width="206" height="206" filterUnits="userSpaceOnUse" color-interpolation-filters="sRGB">
<feFlood flood-opacity="0" result="BackgroundImageFix"/>
<feColorMatrix in="SourceAlpha" type="matrix" values="0 0 0 0 0 0 0 0 0 0 0 0 0 0 0 0 0 0 127 0" result="hardAlpha"/>
<feOffset dy="9"/>
<feGaussianBlur stdDeviation="9"/>
<feColorMatrix type="matrix" values="0 0 0 0 0 0 0 0 0 0 0 0 0 0 0 0 0 0 0.45 0"/>
<feBlend mode="normal" in2="BackgroundImageFix" result="effect1_dropShadow_27_511"/>
<feBlend mode="normal" in="SourceGraphic" in2="effect1_dropShadow_27_511" result="shape"/>
</filter>
<clipPath id="clip0_27_511">
<rect width="50" height="62.5" fill="white" transform="translate(119 94)"/>
</clipPath>
<clipPath id="clip1_27_511">
<rect width="30" height="37.5" fill="white" transform="translate(31 24)"/>
</clipPath>
<clipPath id="clip2_27_511">
<rect width="21" height="26.25" fill="white" transform="translate(100 13)"/>
</clipPath>
</defs>
</svg>
