<svg width="25" height="24" viewBox="0 0 25 24" fill="none" xmlns="http://www.w3.org/2000/svg">
<g id="Search">
<g id="Search_2">
<path id="Ellipse 90 (Stroke)" fill-rule="evenodd" clip-rule="evenodd" d="M10.5 4C7.73858 4 5.5 6.23858 5.5 9C5.5 11.7614 7.73858 14 10.5 14C13.2614 14 15.5 11.7614 15.5 9C15.5 6.23858 13.2614 4 10.5 4ZM3.5 9C3.5 5.13401 6.63401 2 10.5 2C14.366 2 17.5 5.13401 17.5 9C17.5 12.866 14.366 16 10.5 16C6.63401 16 3.5 12.866 3.5 9Z" fill="#9E9E9E"/>
<path id="Vector 94 (Stroke)" fill-rule="evenodd" clip-rule="evenodd" d="M20.7684 21.6823L13.7694 14.1823L15.2316 12.8177L22.2306 20.3177L20.7684 21.6823Z" fill="#9E9E9E"/>
</g>
</g>
</svg>
