<svg width="31" height="31" viewBox="0 0 31 31" fill="none" xmlns="http://www.w3.org/2000/svg">
<g id="Setting">
<path id="Vector (Stroke)" fill-rule="evenodd" clip-rule="evenodd" d="M13.038 3H18.0811L18.6535 5.96175C19.1675 6.13177 19.6618 6.34193 20.1332 6.58727L22.6021 4.91859L26.1669 8.48342L24.4734 10.9864C24.712 11.4624 24.9142 11.9591 25.077 12.4733L28 13.038V18.079L25.0388 18.6575C24.8688 19.1718 24.6586 19.6663 24.4132 20.1379L26.0823 22.6012L22.5166 26.1669L20.0136 24.4734C19.5376 24.7119 19.0409 24.9142 18.5267 25.077L17.962 28H12.9189L12.3465 25.0382C11.8328 24.8683 11.3389 24.6583 10.8677 24.4132L8.40445 26.0823L4.83916 22.517L6.52687 20.0197C6.28817 19.5435 6.08581 19.0467 5.92299 18.5324L3 17.9677V12.9246L5.96175 12.3521C6.13177 11.8382 6.34193 11.3439 6.58727 10.8725L4.91779 8.40241L8.48986 4.83995L10.986 6.52687C11.4621 6.28817 11.959 6.08581 12.4733 5.92299L13.038 3ZM15.1012 5.5L14.6259 7.96019L13.832 8.14192C13.0219 8.32736 12.2607 8.6396 11.5669 9.05974L10.8825 9.47427L8.79672 8.06469L8.14578 8.71389L9.55065 10.7925L9.11695 11.4824C8.68658 12.1671 8.36101 12.9217 8.16703 13.7267L7.97864 14.5086L5.5 14.9876V15.9044L7.96019 16.3798L8.14192 17.1736C8.32736 17.9838 8.6396 18.745 9.05974 19.4387L9.47427 20.1232L8.06549 22.2078L8.71185 22.8541L10.7859 21.4488L11.4768 21.8831C12.1614 22.3134 12.9161 22.639 13.7211 22.833L14.5029 23.0214L14.982 25.5H15.8988L16.3741 23.0398L17.168 22.8581C17.9781 22.6726 18.7393 22.3604 19.4331 21.9403L20.1179 21.5255L22.2082 22.9398L22.8541 22.2938L21.4488 20.2198L21.8831 19.5289C22.3134 18.8442 22.639 18.0896 22.833 17.2846L23.0209 16.5045L25.5 16.0202V15.1012L23.0398 14.6259L22.8581 13.832C22.6726 13.0219 22.3604 12.2607 21.9403 11.5669L21.5255 10.8821L22.9398 8.7918L22.293 8.14499L20.2132 9.55065L19.5232 9.11695C18.8386 8.68658 18.0839 8.36101 17.2789 8.16703L16.4971 7.97864L16.018 5.5H15.1012Z" fill="#9E9E9E"/>
<path id="Ellipse 49 (Stroke)" fill-rule="evenodd" clip-rule="evenodd" d="M15.5 13C14.1193 13 13 14.1193 13 15.5C13 16.8807 14.1193 18 15.5 18C16.8807 18 18 16.8807 18 15.5C18 14.1193 16.8807 13 15.5 13ZM10.5 15.5C10.5 12.7386 12.7386 10.5 15.5 10.5C18.2614 10.5 20.5 12.7386 20.5 15.5C20.5 18.2614 18.2614 20.5 15.5 20.5C12.7386 20.5 10.5 18.2614 10.5 15.5Z" fill="#9E9E9E"/>
</g>
</svg>
